<svg width="512" height="512" viewBox="0 0 512 512" fill="none" xmlns="http://www.w3.org/2000/svg">
  <rect width="512" height="512" rx="128" fill="url(#gradient)"/>
  <defs>
    <linearGradient id="gradient" x1="0" y1="0" x2="512" y2="512" gradientUnits="userSpaceOnUse">
      <stop offset="0%" stop-color="#8b5cf6"/>
      <stop offset="100%" stop-color="#14b8a6"/>
    </linearGradient>
  </defs>
  <path d="M256 416c-8.8 0-16-7.2-16-16v-64c0-8.8 7.2-16 16-16s16 7.2 16 16v64c0 8.8-7.2 16-16 16zm108.5-265.5c-37.5-37.5-98.3-37.5-135.8 0L256 177.8l27.3-27.3c37.5-37.5 98.3-37.5 135.8 0 37.5 37.5 37.5 98.3 0 135.8L256 449.5 92.9 286.3c-37.5-37.5-37.5-98.3 0-135.8 37.5-37.5 98.3-37.5 135.8 0L256 177.8l27.3-27.3-27.3-27.3z" fill="white"/>
</svg>
